<svg width="40" height="40" viewBox="0 0 40 40" fill="none" xmlns="http://www.w3.org/2000/svg">
<rect width="40" height="40" fill="#1A1A1A"/>
<path d="M8.552 14.576H13.976V27.704H8.552V14.576ZM11.264 13.52C10.288 13.52 9.496 13.264 8.888 12.752C8.296 12.224 8 11.56 8 10.76C8 9.96 8.296 9.304 8.888 8.792C9.496 8.264 10.288 8 11.264 8C12.256 8 13.048 8.248 13.64 8.744C14.232 9.24 14.528 9.88 14.528 10.664C14.528 11.496 14.232 12.184 13.64 12.728C13.048 13.256 12.256 13.52 11.264 13.52Z" fill="white"/>
<path d="M25.1401 14.336C26.2921 14.336 27.3481 14.616 28.3081 15.176C29.2841 15.72 30.0521 16.512 30.6121 17.552C31.1881 18.592 31.4761 19.792 31.4761 21.152C31.4761 22.512 31.1881 23.712 30.6121 24.752C30.0521 25.776 29.2841 26.568 28.3081 27.128C27.3481 27.672 26.2921 27.944 25.1401 27.944C23.6841 27.944 22.5721 27.568 21.8041 26.816V32.36H16.3801V14.576H21.5401V15.656C22.3241 14.776 23.5241 14.336 25.1401 14.336ZM23.8441 23.72C24.4681 23.72 24.9801 23.496 25.3801 23.048C25.7801 22.6 25.9801 21.968 25.9801 21.152C25.9801 20.336 25.7801 19.704 25.3801 19.256C24.9801 18.792 24.4681 18.56 23.8441 18.56C23.2201 18.56 22.7081 18.792 22.3081 19.256C21.9081 19.704 21.7081 20.336 21.7081 21.152C21.7081 21.968 21.9081 22.6 22.3081 23.048C22.7081 23.496 23.2201 23.72 23.8441 23.72Z" fill="white"/>
</svg>
