<svg width="155" height="32" viewBox="0 0 155 32" fill="none" xmlns="http://www.w3.org/2000/svg">
<path d="M28.899 29.6716C27.3072 28.8199 25.9895 27.5344 25.0988 25.9641C24.1413 24.2476 23.6612 22.3059 23.7085 20.341C23.6687 18.3769 24.1482 16.4371 25.0988 14.7179C26.0129 13.1443 27.3512 11.8595 28.9608 11.0104C30.6583 10.1294 32.5481 9.68351 34.4604 9.71275C36.3628 9.68345 38.2425 10.1295 39.9289 11.0104C41.5456 11.8497 42.8863 13.1369 43.7909 14.7179C44.7649 16.4291 45.2561 18.3725 45.2121 20.341C45.2411 22.3077 44.7509 24.2473 43.7909 25.9641C42.8658 27.5399 41.517 28.8244 39.898 29.6716C38.1881 30.5491 36.2893 30.9946 34.3676 30.9692C32.4656 30.9946 30.5869 30.5488 28.899 29.6716ZM37.4881 24.1721C38.3015 23.0603 38.74 21.7185 38.74 20.341C38.74 18.9634 38.3015 17.6216 37.4881 16.5099C37.096 16.083 36.618 15.744 36.0855 15.515C35.553 15.2861 34.9781 15.1724 34.3985 15.1813C33.8181 15.1663 33.2413 15.2773 32.708 15.5067C32.1746 15.736 31.6973 16.0783 31.3089 16.5099C30.5261 17.6341 30.1065 18.9711 30.1065 20.341C30.1065 21.7109 30.5261 23.0479 31.3089 24.1721C31.6932 24.6087 32.1698 24.9544 32.7042 25.1841C33.2385 25.4139 33.8173 25.522 34.3985 25.5006C34.9767 25.5002 35.5487 25.3822 36.0798 25.1539C36.611 24.9255 37.0901 24.5914 37.4881 24.1721Z" fill="#552084"/>
<path d="M52.1637 29.9499C50.8561 29.3995 49.7085 28.5281 48.827 27.4164C48.0323 26.3691 47.5599 25.113 47.4676 23.8016H53.6468C53.6783 24.1482 53.7827 24.4842 53.953 24.7877C54.1234 25.0912 54.356 25.3553 54.6355 25.5627C55.2772 26.0107 56.0469 26.2383 56.8291 26.2114C57.4701 26.2502 58.1072 26.0882 58.6519 25.748C58.8527 25.618 59.0175 25.4394 59.1309 25.2288C59.2443 25.0182 59.3027 24.7823 59.3007 24.5431C59.3026 24.2567 59.214 23.9771 59.0475 23.7441C58.8811 23.5111 58.6453 23.3366 58.3739 23.2455C57.3804 22.819 56.3448 22.4979 55.2843 22.2877C54.0261 22.0089 52.7875 21.6477 51.5767 21.2063C50.59 20.8097 49.7113 20.185 49.0124 19.3835C48.2651 18.4256 47.8918 17.2286 47.9619 16.0158C47.9504 14.8631 48.284 13.7333 48.9197 12.7717C49.6662 11.7565 50.6683 10.957 51.8239 10.4545C53.2638 9.8653 54.8103 9.58123 56.3656 9.62032C58.5886 9.49597 60.782 10.1759 62.5448 11.5359C64.0391 12.843 64.96 14.6849 65.1092 16.6646H59.2389C59.2073 16.3291 59.109 16.0032 58.9499 15.7061C58.7907 15.409 58.5738 15.1467 58.312 14.9344C57.6991 14.5023 56.9604 14.285 56.2111 14.3165C55.6148 14.2936 55.0246 14.4438 54.5119 14.7491C54.3229 14.8793 54.1699 15.0552 54.0672 15.2605C53.9646 15.4658 53.9156 15.6938 53.9248 15.9231C53.9256 16.2126 54.0148 16.4949 54.1805 16.7323C54.3461 16.9698 54.5803 17.1509 54.8517 17.2516C55.8523 17.6433 56.8864 17.9431 57.9413 18.1476C59.2103 18.4493 60.459 18.8312 61.6798 19.2908C62.654 19.7084 63.5203 20.3423 64.2132 21.1445C64.988 22.1164 65.3931 23.3316 65.3564 24.574C65.3787 25.7375 65.0207 26.8765 64.3368 27.818C63.5836 28.8246 62.5682 29.6049 61.4016 30.0735C59.9902 30.6464 58.4753 30.9199 56.9527 30.8767C55.3097 30.8992 53.6796 30.5838 52.1637 29.9499Z" fill="#552084"/>
<path d="M72.8641 29.9494C71.5466 29.4162 70.3948 28.5417 69.5273 27.4159C68.7352 26.3645 68.2536 25.1122 68.137 23.8011H74.3162C74.3587 24.1481 74.4709 24.4831 74.6461 24.7857C74.8213 25.0883 75.0559 25.3524 75.3357 25.5622C75.9679 26.0058 76.7265 26.2333 77.4985 26.2109C78.1498 26.2562 78.7988 26.094 79.3523 25.7475C79.5531 25.6175 79.7178 25.4389 79.8312 25.2283C79.9447 25.0176 80.0031 24.7818 80.0011 24.5426C80.0029 24.2562 79.9143 23.9766 79.7479 23.7436C79.5814 23.5106 79.3456 23.3361 79.0741 23.245C78.0784 22.8243 77.0435 22.5035 75.9845 22.2872C74.7263 22.0084 73.4878 21.6472 72.277 21.2058C71.2863 20.8167 70.4058 20.1908 69.7126 19.383C68.9543 18.4294 68.5699 17.2321 68.6313 16.0153C68.6308 14.8597 68.975 13.7301 69.6199 12.7712C70.3516 11.7418 71.358 10.9389 72.5242 10.454C73.9641 9.8648 75.5106 9.58074 77.0659 9.61982C79.2923 9.46651 81.4958 10.1496 83.2451 11.5354C84.7482 12.8393 85.68 14.6807 85.8403 16.6641H79.9701C79.9329 16.3267 79.8291 16 79.6647 15.703C79.5003 15.406 79.2786 15.1446 79.0124 14.9339C78.411 14.502 77.6821 14.2844 76.9424 14.316C76.3357 14.287 75.7338 14.4374 75.2121 14.7486C74.9993 14.9006 74.8326 15.1085 74.7303 15.3493C74.628 15.5901 74.5942 15.8544 74.6325 16.1132C74.6709 16.3719 74.7799 16.6151 74.9475 16.8159C75.1152 17.0167 75.3352 17.1673 75.5829 17.2511C76.5326 17.6368 77.5149 17.9366 78.518 18.1471C79.7882 18.4446 81.037 18.8266 82.2564 19.2903C83.2446 19.6989 84.123 20.3338 84.8208 21.144C85.5708 22.1274 85.9631 23.3371 85.933 24.5735C85.9554 25.737 85.5975 26.876 84.9135 27.8175C84.1674 28.8311 83.1498 29.613 81.9783 30.073C80.577 30.6435 79.0727 30.9169 77.5602 30.8762C75.9479 30.8922 74.3495 30.5767 72.8641 29.9494Z" fill="#552084"/>
<path d="M109.352 21.8543H94.9856C94.9874 23.0102 95.4422 24.1194 96.2523 24.9439C96.6109 25.2828 97.033 25.5474 97.4944 25.7224C97.9557 25.8974 98.4471 25.9793 98.9402 25.9635C99.6273 26.0116 100.312 25.8439 100.899 25.4839C101.486 25.1239 101.947 24.5894 102.215 23.9552H108.981C108.631 25.3044 107.987 26.5597 107.097 27.6318C106.175 28.7275 105.012 29.5947 103.698 30.1653C102.269 30.798 100.719 31.1142 99.1564 31.0922C97.2729 31.1285 95.4115 30.6817 93.7496 29.7946C92.1706 28.9576 90.8791 27.6661 90.0422 26.087C89.1091 24.3623 88.6407 22.4245 88.6828 20.464C88.6463 18.5078 89.1032 16.5739 90.0113 14.8409C90.8461 13.2708 92.1248 11.9813 93.6879 11.1334C95.3685 10.3002 97.2189 9.86675 99.0947 9.86675C100.97 9.86675 102.821 10.3002 104.501 11.1334C106.033 11.971 107.297 13.224 108.147 14.7482C109.042 16.4183 109.489 18.2917 109.445 20.1859C109.445 20.6596 109.414 21.2158 109.352 21.8543ZM102.957 18.3322C102.977 17.844 102.887 17.3575 102.695 16.9085C102.502 16.4594 102.212 16.0591 101.844 15.7369C101.286 15.2303 100.599 14.8884 99.8582 14.7489C99.1176 14.6094 98.3528 14.6779 97.6487 14.9467C96.9446 15.2155 96.3288 15.6742 95.8696 16.2718C95.4104 16.8694 95.1258 17.5826 95.0473 18.3322H102.957Z" fill="#552084"/>
<path d="M113.029 29.9495C112.697 29.6322 112.433 29.251 112.253 28.8288C112.072 28.4067 111.979 27.9523 111.979 27.4933C111.979 27.0342 112.072 26.5798 112.253 26.1577C112.433 25.7355 112.697 25.3543 113.029 25.037C113.392 24.6958 113.819 24.4299 114.286 24.2549C114.753 24.0799 115.25 23.9992 115.748 24.0175C116.241 23.9964 116.734 24.0758 117.196 24.2511C117.658 24.4264 118.08 24.6938 118.436 25.037C118.775 25.3496 119.047 25.7292 119.232 26.152C119.418 26.5748 119.514 27.0315 119.514 27.4933C119.514 27.955 119.418 28.4117 119.232 28.8345C119.047 29.2573 118.775 29.637 118.436 29.9495C118.073 30.2788 117.649 30.533 117.187 30.6974C116.726 30.8618 116.237 30.9331 115.748 30.9073C114.752 30.9509 113.778 30.6077 113.029 29.9495Z" fill="#552084"/>
<path d="M123.719 6.87016C123.373 6.56709 123.099 6.19071 122.918 5.76846C122.736 5.34621 122.651 4.88876 122.668 4.4294C122.657 3.96629 122.745 3.50607 122.926 3.07973C123.107 2.65339 123.377 2.27081 123.719 1.95771C124.484 1.33813 125.438 1.00004 126.422 1.00004C127.406 1.00004 128.361 1.33813 129.126 1.95771C129.467 2.27081 129.737 2.65339 129.919 3.07973C130.1 3.50607 130.188 3.96629 130.176 4.4294C130.194 4.88876 130.108 5.34621 129.927 5.76846C129.745 6.19071 129.471 6.56709 129.126 6.87016C128.369 7.50646 127.411 7.85532 126.422 7.85532C125.433 7.85532 124.476 7.50646 123.719 6.87016ZM129.589 9.95976V30.6601H123.255V9.95976H129.589Z" fill="#552084"/>
<path d="M21.0803 6.00361C20.1757 4.42257 18.8349 3.13547 17.2183 2.2961C15.5318 1.4152 13.6522 0.969182 11.7497 0.998477C9.83743 0.969236 7.94778 1.4151 6.25026 2.2961C4.64066 3.14525 3.30237 4.43 2.38826 6.00361C1.4377 7.72282 0.958049 9.66261 0.997901 11.6267V30.6895H7.45515V21.4207C9.02113 22.0262 10.6971 22.2952 12.3739 22.21C14.0507 22.1248 15.6908 21.6875 17.1874 20.9264C18.8064 20.0792 20.1552 18.7947 21.0803 17.2189C22.0402 15.5021 22.5304 13.5625 22.5015 11.5958C22.5399 9.63776 22.0489 7.7057 21.0803 6.00361ZM14.9011 15.4578C14.5031 15.8771 14.024 16.2112 13.4928 16.4395C12.9617 16.6679 12.3896 16.7859 11.8115 16.7863C11.2302 16.8077 10.6515 16.6996 10.1172 16.4699C9.58281 16.2401 9.10622 15.8944 8.7219 15.4578C7.9391 14.3336 7.51945 12.9966 7.51945 11.6267C7.51945 10.2568 7.9391 8.91978 8.7219 7.79558C9.11026 7.36399 9.58755 7.02172 10.1209 6.79237C10.6543 6.56302 11.2311 6.45201 11.8115 6.46703C12.391 6.45805 12.966 6.57179 13.4985 6.80076C14.031 7.02973 14.5089 7.36876 14.9011 7.79558C15.7145 8.90734 16.1529 10.2492 16.1529 11.6267C16.1529 13.0043 15.7145 14.346 14.9011 15.4578Z" fill="#552084"/>
<path d="M147.972 3.2558V10.5164C146.406 9.91084 144.73 9.64187 143.053 9.72705C141.377 9.81222 139.737 10.2496 138.24 11.0107C136.621 11.8579 135.272 13.1424 134.347 14.7182C133.373 16.4294 132.882 18.3728 132.926 20.3413C132.886 22.3054 133.366 24.2452 134.316 25.9644C135.23 27.538 136.569 28.8227 138.178 29.6719C139.876 30.5529 141.765 30.9987 143.678 30.9694C145.58 30.9987 147.46 30.5528 149.146 29.6719C150.763 28.8325 152.104 27.5454 153.008 25.9644C153.875 24.4352 154.352 22.7163 154.398 20.9592V3.2558H147.972ZM143.678 25.5009C143.098 25.5099 142.523 25.3962 141.991 25.1672C141.458 24.9382 140.98 24.5992 140.588 24.1724C139.698 23.102 139.256 21.7298 139.352 20.3413C139.3 19.6507 139.386 18.9567 139.603 18.2992C139.82 17.6417 140.166 17.0337 140.619 16.5102C141.016 16.0894 141.495 15.7544 142.026 15.5259C142.558 15.2974 143.13 15.1802 143.709 15.1816C144.289 15.1645 144.867 15.2746 145.4 15.5041C145.934 15.7335 146.411 16.0769 146.798 16.5102C147.666 17.5911 148.096 18.9584 148.003 20.3413C148.106 21.7306 147.663 23.1052 146.767 24.1724C146.386 24.6049 145.915 24.9481 145.386 25.1777C144.857 25.4073 144.285 25.5177 143.709 25.5009H143.678Z" fill="#552084"/>
</svg>
