<svg width="160" height="160" viewBox="0 0 160 160" fill="none" xmlns="http://www.w3.org/2000/svg">
<rect width="160" height="160" fill="#1B1B1B"/>
<path d="M43.936 71.368H49.936V97H43.936V71.368ZM46.96 67.144C45.872 67.144 44.96 66.808 44.224 66.136C43.488 65.432 43.12 64.568 43.12 63.544C43.12 62.52 43.488 61.672 44.224 61C44.96 60.296 45.872 59.944 46.96 59.944C48.048 59.944 48.96 60.28 49.696 60.952C50.432 61.592 50.8 62.408 50.8 63.4C50.8 64.456 50.432 65.352 49.696 66.088C48.992 66.792 48.08 67.144 46.96 67.144ZM72.019 71.08C74.515 71.08 76.739 71.624 78.691 72.712C80.675 73.8 82.227 75.336 83.347 77.32C84.467 79.304 85.027 81.592 85.027 84.184C85.027 86.776 84.467 89.08 83.347 91.096C82.227 93.08 80.675 94.616 78.691 95.704C76.739 96.792 74.515 97.336 72.019 97.336C68.563 97.336 65.827 96.184 63.811 93.88V106.312H57.811V71.368H63.523V74.728C64.515 73.512 65.731 72.6 67.171 71.992C68.643 71.384 70.259 71.08 72.019 71.08ZM71.347 92.2C73.555 92.2 75.363 91.464 76.771 89.992C78.211 88.52 78.931 86.584 78.931 84.184C78.931 81.784 78.211 79.848 76.771 78.376C75.363 76.904 73.555 76.168 71.347 76.168C69.907 76.168 68.611 76.504 67.459 77.176C66.307 77.816 65.395 78.744 64.723 79.96C64.051 81.176 63.715 82.584 63.715 84.184C63.715 85.784 64.051 87.192 64.723 88.408C65.395 89.624 66.307 90.568 67.459 91.24C68.611 91.88 69.907 92.2 71.347 92.2ZM104.925 71.08C107.421 71.08 109.645 71.624 111.597 72.712C113.581 73.8 115.133 75.336 116.253 77.32C117.373 79.304 117.933 81.592 117.933 84.184C117.933 86.776 117.373 89.08 116.253 91.096C115.133 93.08 113.581 94.616 111.597 95.704C109.645 96.792 107.421 97.336 104.925 97.336C101.469 97.336 98.7333 96.184 96.7173 93.88V106.312H90.7173V71.368H96.4293V74.728C97.4213 73.512 98.6373 72.6 100.077 71.992C101.549 71.384 103.165 71.08 104.925 71.08ZM104.253 92.2C106.461 92.2 108.269 91.464 109.677 89.992C111.117 88.52 111.837 86.584 111.837 84.184C111.837 81.784 111.117 79.848 109.677 78.376C108.269 76.904 106.461 76.168 104.253 76.168C102.813 76.168 101.517 76.504 100.365 77.176C99.2133 77.816 98.3013 78.744 97.6293 79.96C96.9573 81.176 96.6213 82.584 96.6213 84.184C96.6213 85.784 96.9573 87.192 97.6293 88.408C98.3013 89.624 99.2133 90.568 100.365 91.24C101.517 91.88 102.813 92.2 104.253 92.2Z" fill="white"/>
</svg>
